<?xml version="1.0" standalone="no"?>
<!DOCTYPE svg PUBLIC "-//W3C//DTD SVG 20010904//EN"
 "http://www.w3.org/TR/2001/REC-SVG-20010904/DTD/svg10.dtd">
<svg version="1.0" xmlns="http://www.w3.org/2000/svg"
 width="850.000000pt" height="478.000000pt" viewBox="0 0 850.000000 478.000000"
 preserveAspectRatio="xMidYMid meet">
<metadata>
Created by potrace 1.16, written by Peter Selinger 2001-2019
</metadata>
<g transform="translate(0.000000,478.000000) scale(0.100000,-0.100000)"
fill="#000000" stroke="none">
<path d="M7434 4386 c-8 -33 -1 -120 20 -249 17 -106 30 -138 75 -189 16 -18
39 -55 51 -81 13 -27 44 -72 70 -100 63 -70 68 -85 27 -89 -24 -2 -32 -8 -32
-23 0 -11 -3 -29 -7 -40 -3 -11 -9 -46 -13 -77 -4 -41 -11 -58 -21 -58 -8 0
-14 -5 -14 -11 0 -5 -5 -7 -11 -4 -6 4 -21 -3 -35 -16 -14 -13 -24 -17 -24
-10 0 21 -25 39 -51 36 -38 -4 -39 -4 -39 -16 0 -20 -33 -39 -48 -27 -9 8 -16
8 -24 0 -7 -7 -24 -12 -39 -12 -23 0 -43 21 -131 132 l-104 132 -99 51 c-55
29 -135 70 -178 93 -68 37 -137 55 -137 36 0 -3 10 -20 22 -36 19 -28 3 -22
-168 67 -104 54 -231 127 -281 162 -51 35 -93 59 -93 52 0 -13 69 -83 140
-142 l45 -38 -36 15 c-43 18 -173 94 -252 148 -32 22 -61 38 -63 35 -17 -17
161 -170 258 -223 62 -34 62 -34 23 -28 -22 4 -69 18 -105 31 -97 36 -230 80
-269 87 -48 9 -29 -11 67 -67 90 -54 130 -71 227 -103 l70 -22 -60 -1 c-33 0
-112 4 -175 9 -115 9 -190 5 -190 -11 0 -5 12 -9 28 -9 15 0 43 -5 62 -10 45
-14 222 -39 280 -41 l45 -1 -45 -8 c-25 -5 -95 -13 -156 -19 -158 -14 -230
-49 -91 -44 74 3 74 0 2 -29 l-30 -12 45 -6 45 -6 -38 -8 c-65 -14 -27 -27 99
-33 l119 -6 -42 -14 c-24 -8 -43 -20 -43 -26 0 -17 48 -37 91 -37 32 0 36 -2
32 -23 -4 -18 3 -26 32 -40 19 -9 42 -17 50 -17 8 0 15 -8 15 -18 0 -29 21
-42 66 -42 38 0 41 -2 37 -23 -6 -32 28 -61 67 -55 24 4 30 1 30 -15 0 -11 11
-23 28 -29 16 -6 36 -24 45 -40 10 -17 26 -32 37 -35 11 -3 20 -11 20 -17 0
-15 42 -56 56 -56 6 0 21 -11 34 -25 13 -14 30 -25 37 -25 7 0 18 -11 23 -25
5 -14 16 -25 23 -25 8 0 26 -9 40 -20 14 -11 32 -20 40 -20 9 0 18 -8 21 -18
3 -10 18 -23 33 -29 31 -14 65 -34 73 -45 17 -23 86 -58 112 -58 18 0 41 -9
52 -19 12 -10 41 -30 66 -44 61 -34 66 -66 15 -96 -42 -25 -80 -27 -89 -6 -3
8 -17 15 -31 15 -19 0 -25 -5 -25 -21 0 -16 -4 -19 -17 -14 -10 4 -30 10 -45
13 -21 3 -28 0 -28 -12 0 -10 5 -14 11 -11 6 4 13 -2 16 -14 4 -15 13 -21 32
-21 l26 0 -25 -13 c-14 -7 -26 -21 -28 -31 -3 -12 0 -16 8 -11 7 4 37 9 68 11
54 3 58 1 89 -33 23 -24 31 -42 28 -54 -10 -29 23 -24 37 6 7 16 8 29 1 37 -6
7 -13 27 -17 43 -6 24 -5 28 5 18 17 -17 32 -17 23 0 -4 6 5 1 19 -12 15 -14
27 -32 27 -42 0 -10 5 -21 11 -25 6 -3 9 -15 6 -25 -7 -26 19 -25 33 1 6 11
10 28 8 37 -2 10 2 18 9 18 20 0 25 13 13 35 -15 29 -10 32 28 18 21 -8 32
-19 33 -33 0 -11 3 -15 5 -9 8 18 52 4 58 -19 5 -20 6 -20 28 6 13 15 29 27
35 27 14 0 20 18 29 93 3 31 8 57 11 57 2 0 13 -5 24 -11 15 -7 24 -7 34 1 10
9 23 4 56 -19 23 -17 48 -31 56 -31 8 0 26 -9 40 -20 14 -11 34 -20 45 -20 11
0 40 -12 64 -26 41 -24 53 -26 122 -22 107 6 161 45 120 86 -9 9 -8 12 5 12
19 0 23 30 6 47 -8 8 -8 13 0 17 16 10 13 42 -4 56 -14 12 -14 15 1 31 10 11
14 22 10 26 -13 13 -81 33 -115 33 l-33 0 22 18 c22 17 23 27 26 153 3 181 14
322 25 335 5 6 2 19 -7 32 -9 13 -13 31 -9 42 7 24 -38 72 -105 112 -87 52
-320 308 -320 351 0 7 -11 29 -25 49 -14 20 -25 43 -25 51 0 8 -11 31 -25 51
-14 20 -25 50 -25 66 0 45 -36 120 -58 120 -15 0 -21 9 -26 38 -3 20 -16 57
-28 82 l-22 45 -4 -40 -4 -40 -19 54 c-24 70 -36 82 -45 47z m-698 -860 c16
-5 20 -12 17 -26 -5 -18 0 -20 35 -20 56 0 103 -44 100 -92 -3 -29 0 -33 20
-32 17 0 21 -3 16 -18 -8 -27 15 -51 43 -43 16 4 28 -1 40 -15 10 -11 23 -20
30 -20 16 0 26 -18 29 -54 5 -61 22 -162 31 -191 13 -38 4 -60 -24 -61 -13 -1
-23 0 -23 1 0 1 7 19 15 38 18 43 19 58 2 37 -7 -9 -19 -15 -27 -15 -8 1 -21
-3 -28 -9 -10 -7 -9 1 3 29 9 22 19 46 22 53 3 6 0 12 -5 12 -6 0 -13 -8 -16
-18 -3 -9 -15 -23 -26 -29 -16 -11 -18 -10 -13 4 4 10 2 14 -5 9 -12 -7 -2 37
18 73 6 12 9 27 7 34 -2 7 -10 0 -17 -15 -9 -20 -17 -25 -25 -18 -8 7 -17 4
-30 -10 -35 -39 -32 -8 6 62 44 80 48 118 5 44 -15 -26 -30 -45 -33 -42 -4 3
-11 2 -17 -3 -6 -5 -19 -6 -28 -2 -15 5 -13 13 17 60 19 30 32 57 29 60 -3 3
-10 -2 -15 -11 -21 -38 -62 -78 -79 -78 -10 0 -22 -5 -26 -11 -4 -7 -10 -7
-16 -1 -7 7 -2 21 15 44 13 18 33 47 43 63 l18 30 -30 -26 c-25 -23 -58 -40
-74 -40 -3 0 -16 -10 -30 -22 -19 -18 -21 -18 -10 -3 14 18 13 19 -5 12 -11
-4 8 21 43 55 34 34 60 64 57 67 -3 3 -13 -2 -24 -12 -10 -9 -28 -18 -39 -21
-11 -2 -32 -11 -45 -20 -24 -15 -26 -15 -32 6 -6 18 -1 28 21 46 37 29 13 30
-35 1 -43 -27 -61 -31 -61 -13 0 8 -8 15 -17 17 -11 2 4 13 39 28 66 29 78 46
17 25 -49 -18 -52 -18 -44 -6 3 6 -7 6 -27 0 -18 -5 -34 -9 -36 -9 -2 0 -1 4
3 9 3 6 -7 6 -27 1 -58 -17 -13 13 65 42 81 30 70 35 -29 13 -36 -9 -69 -14
-72 -10 -3 3 3 5 14 5 16 0 17 2 4 10 -8 5 -10 10 -5 10 6 0 4 4 -2 8 -8 5 28
18 90 34 l102 26 30 -23 c17 -12 40 -25 51 -29z m602 -152 c12 -4 22 -12 22
-19 0 -8 7 -21 15 -29 11 -11 13 -21 7 -33 -5 -10 -8 -28 -7 -40 1 -16 -6 -26
-27 -35 -29 -13 -37 -28 -15 -29 6 0 2 -4 -10 -9 -13 -5 -23 -14 -23 -19 0 -6
-7 -8 -17 -4 -13 5 -12 8 8 15 17 7 20 11 11 17 -9 6 -3 13 20 24 l33 17 -29
0 c-16 0 -38 -7 -48 -17 -10 -9 -18 -11 -18 -5 0 7 -9 6 -27 -3 -15 -8 -30
-12 -33 -8 -3 3 1 8 7 10 20 7 58 41 53 46 -3 3 -23 0 -44 -6 -27 -8 -46 -23
-59 -44 -21 -36 -32 -40 -61 -18 -19 14 -19 17 -4 49 51 106 153 164 246 140z
m809 -596 c-2 -7 -12 -12 -22 -10 -24 5 -14 -20 13 -33 33 -15 26 -26 -13 -22
-19 3 -35 1 -35 -4 0 -4 16 -13 35 -20 19 -7 35 -17 35 -21 0 -18 -29 -19 -60
-3 -18 9 -34 14 -37 12 -7 -7 50 -45 80 -52 15 -4 24 -11 21 -16 -9 -16 -38
-10 -77 17 -50 33 -57 25 -15 -16 23 -22 26 -29 11 -21 -12 6 -25 16 -28 21
-12 19 -26 10 -20 -12 6 -19 5 -21 -6 -10 -16 14 -33 16 -24 2 9 -14 -2 -13
-40 6 -25 11 -32 20 -28 35 5 18 7 19 29 4 39 -25 54 -19 54 21 0 19 -5 45
-11 57 -9 18 -9 20 2 10 7 -7 21 -13 31 -13 20 0 42 35 34 55 -5 14 12 22 52
24 15 1 22 -4 19 -11z"/>
<path d="M3629 2485 c-63 -13 -108 -32 -174 -75 -16 -11 -38 -23 -47 -27 -39
-18 -153 -131 -194 -192 -103 -156 -139 -364 -94 -558 32 -141 85 -238 185
-339 96 -97 145 -127 272 -165 108 -33 182 -36 368 -19 89 9 120 16 169 41 91
46 135 80 211 160 82 87 124 162 159 283 45 154 29 381 -35 509 -31 61 -112
168 -163 215 -140 129 -282 182 -481 181 -60 -1 -140 -7 -176 -14z m263 -275
c47 -13 143 -109 172 -170 19 -41 21 -63 21 -230 0 -174 -1 -188 -24 -233 -27
-56 -112 -152 -152 -172 -41 -22 -175 -20 -216 3 -42 23 -100 95 -132 162 -24
50 -26 69 -29 202 -3 119 -1 157 13 200 39 119 100 200 175 232 41 18 119 20
172 6z"/>
<path d="M6315 2481 c-38 -4 -121 -5 -182 -3 l-113 5 -16 -38 c-12 -30 -14
-57 -8 -136 10 -141 4 -138 224 -141 l175 -3 0 -505 c1 -278 4 -511 9 -518 10
-17 349 -17 364 0 6 8 13 201 17 510 5 357 11 500 19 507 6 5 96 11 199 13
154 2 189 6 197 18 12 19 13 211 1 243 -13 33 -41 37 -376 42 -154 2 -316 6
-360 9 -44 2 -111 1 -150 -3z"/>
<path d="M760 2470 c-35 -6 -60 -15 -71 -28 -9 -11 -55 -141 -104 -289 -48
-147 -139 -416 -202 -598 -63 -181 -117 -345 -120 -362 -10 -60 0 -63 192 -63
l173 0 10 28 c6 15 18 50 27 79 9 28 21 56 28 61 18 15 463 20 478 5 6 -6 23
-47 38 -90 l26 -78 164 -3 c112 -2 168 1 177 9 20 16 17 96 -5 166 -24 73 -92
266 -171 488 -63 175 -81 226 -157 450 -76 220 -73 216 -100 226 -29 11 -304
10 -383 -1z m188 -482 c47 -119 112 -327 110 -348 -3 -25 -4 -25 -111 -28
-128 -3 -149 4 -140 51 7 35 100 335 109 348 10 16 20 9 32 -23z"/>
<path d="M1874 2473 c-103 -3 -145 -7 -153 -17 -8 -9 -10 -200 -9 -666 l3
-654 25 -6 c14 -4 206 -4 426 -1 l402 6 98 50 c55 27 117 66 138 85 66 59 133
172 168 284 31 100 31 101 25 266 -7 183 -22 245 -88 357 -46 78 -161 198
-212 221 -88 41 -113 51 -152 60 -44 11 -447 20 -671 15z m560 -323 c117 -44
176 -163 176 -353 0 -179 -71 -310 -190 -352 -24 -8 -93 -18 -155 -21 -112 -7
-113 -7 -139 19 l-26 26 0 328 c0 180 3 338 6 351 6 21 10 22 140 22 110 0
143 -4 188 -20z"/>
<path d="M5098 2474 c-4 -3 -103 -5 -220 -5 -203 2 -215 1 -233 -19 -17 -19
-18 -49 -11 -662 4 -354 11 -646 15 -651 4 -4 90 -6 192 -5 l184 3 5 255 5
255 209 6 c325 10 360 17 464 88 70 47 133 116 162 177 31 64 38 176 15 262
-24 91 -35 109 -101 176 -55 56 -141 106 -184 106 -10 0 -21 4 -24 8 -4 7
-337 7 -386 0 -8 -1 -31 1 -51 5 -19 4 -38 5 -41 1z m322 -309 c40 -21 60 -53
60 -97 0 -31 -6 -42 -36 -64 l-36 -28 -181 0 -182 -1 -8 59 c-11 78 1 128 33
137 14 4 92 7 173 8 113 1 155 -3 177 -14z"/>
<path d="M260 994 l-1 -79 -25 48 c-29 56 -43 57 -20 2 26 -61 21 -69 -21 -40
-54 36 -65 31 -18 -10 l40 -34 -55 -2 c-43 -1 -50 -3 -30 -9 14 -4 43 -9 65
-10 39 -1 38 -2 -35 -26 -41 -14 -79 -29 -83 -34 -8 -7 89 -50 113 -50 6 0 10
-4 10 -9 0 -4 -24 -13 -52 -19 l-53 -11 58 3 c31 1 57 -1 57 -4 0 -4 -17 -20
-37 -36 -20 -15 -31 -30 -24 -32 6 -2 27 8 45 22 36 27 51 25 36 -5 -19 -34
-29 -69 -22 -69 5 0 18 19 29 43 l22 42 0 -72 c1 -42 5 -73 11 -73 6 0 29 26
53 58 l43 59 -2 -61 -3 -61 12 59 c14 66 24 64 51 -10 10 -27 15 -33 15 -17 1
12 -4 34 -9 49 -15 39 -6 40 36 5 52 -42 56 -30 8 21 -21 22 -32 39 -24 36 93
-31 122 -39 131 -36 5 2 -8 29 -31 61 -22 32 -40 60 -40 63 0 2 18 -5 41 -16
54 -28 62 -18 10 12 -22 13 -41 26 -41 31 0 4 21 7 48 8 l47 1 -44 9 c-24 5
-46 10 -48 13 -3 3 14 16 37 31 53 33 46 43 -10 15 l-43 -22 42 59 c22 32 37
59 31 61 -8 3 -85 -16 -137 -35 -10 -3 2 15 27 41 50 53 39 62 -16 14 l-37
-33 6 28 c18 70 16 81 -5 35 -12 -27 -25 -48 -29 -48 -3 0 -9 23 -13 50 -4 28
-10 50 -15 50 -4 0 -4 -24 0 -52 3 -29 5 -54 4 -56 -1 -1 -14 15 -29 36 -15
22 -38 50 -51 62 l-25 23 0 -79z"/>
<path d="M6826 1013 c-27 -35 -51 -63 -53 -63 -2 0 -1 10 1 23 13 63 15 87 7
87 -5 0 -12 -22 -16 -50 -4 -27 -11 -50 -15 -50 -5 0 -14 17 -20 38 -14 43
-36 71 -26 32 4 -14 9 -38 13 -55 l6 -30 -35 33 c-52 49 -68 38 -18 -13 24
-25 42 -45 40 -45 -3 0 -34 9 -68 20 -94 30 -99 27 -60 -27 53 -75 53 -76 8
-53 -56 28 -63 18 -10 -15 23 -15 40 -28 37 -31 -2 -3 -24 -8 -48 -13 l-44 -9
48 -1 c26 -1 47 -4 47 -8 0 -5 -19 -18 -41 -31 -52 -30 -44 -40 10 -12 23 11
41 18 41 14 0 -3 -18 -31 -41 -62 -22 -31 -36 -58 -30 -60 5 -2 40 6 76 17
l66 19 -36 -40 c-45 -49 -37 -64 10 -18 19 18 37 31 40 29 2 -3 0 -21 -5 -40
-16 -55 -10 -68 9 -19 10 24 23 46 29 48 5 1 13 -20 17 -48 9 -66 23 -65 18 3
l-4 52 23 -29 c13 -16 35 -43 50 -60 l27 -31 1 80 1 80 22 -42 c26 -52 43 -57
22 -7 -25 60 -20 67 25 38 51 -34 63 -25 16 11 -20 15 -36 31 -36 35 0 3 26 5
58 4 l57 -3 -52 11 c-29 6 -53 15 -53 19 0 5 4 9 10 9 24 0 121 43 113 50 -4
5 -42 20 -83 34 -73 24 -74 25 -35 26 22 1 51 6 65 10 20 6 13 8 -30 9 l-55 2
40 34 c46 40 35 47 -15 10 -18 -14 -36 -23 -38 -20 -3 2 3 25 13 50 24 65 10
68 -19 4 l-25 -53 -3 84 -3 85 -49 -62z"/>
<path d="M1953 920 c-56 -25 -83 -70 -83 -138 0 -67 20 -107 68 -131 83 -41
170 -34 236 20 60 50 71 145 23 205 -47 60 -163 81 -244 44z m178 -53 c44 -30
61 -85 37 -125 -30 -49 -64 -67 -128 -67 -51 0 -63 4 -88 28 -35 33 -43 66
-31 112 20 71 138 101 210 52z"/>
<path d="M3796 917 c-50 -28 -76 -77 -76 -142 0 -96 62 -149 175 -149 99 1
151 40 162 124 l6 40 -102 0 c-94 0 -101 -1 -101 -20 0 -18 7 -20 75 -20 41 0
75 -4 75 -9 0 -6 -11 -23 -24 -38 -22 -25 -31 -28 -88 -28 -74 0 -111 21 -128
73 -40 115 109 193 213 112 52 -41 88 -13 39 31 -58 52 -160 64 -226 26z"/>
<path d="M5752 915 c-52 -32 -76 -75 -74 -138 2 -96 68 -153 175 -151 68 1
150 44 155 82 5 30 -21 29 -63 -4 -89 -68 -225 -22 -225 76 0 72 93 134 169
112 21 -7 46 -21 56 -32 23 -25 68 -28 63 -4 -2 9 -20 30 -40 47 -31 25 -48
30 -105 34 -60 4 -73 1 -111 -22z"/>
<path d="M847 888 c-81 -144 -127 -233 -127 -245 0 -7 10 -13 23 -13 17 0 28
11 45 46 l23 46 87 -6 c48 -3 88 -9 89 -13 2 -5 12 -23 23 -40 20 -33 60 -46
60 -19 0 7 -34 75 -76 150 -64 115 -79 136 -99 136 -18 0 -30 -11 -48 -42z"/>
<path d="M1500 780 l0 -150 25 0 c22 0 24 4 27 57 l3 58 103 1 c116 2 146 14
157 63 8 38 -1 69 -28 99 -19 21 -28 22 -154 22 l-133 0 0 -150z m240 97 c30
-15 37 -48 15 -71 -13 -12 -37 -16 -111 -16 l-94 0 0 50 0 50 83 0 c46 0 93
-6 107 -13z"/>
<path d="M2333 780 l-1 -150 154 0 c144 0 154 1 154 19 0 27 -18 31 -146 31
l-114 0 0 125 c0 124 0 125 -23 125 -23 0 -23 -1 -24 -150z"/>
<path d="M2730 928 c0 -2 -1 -69 -3 -150 l-3 -148 153 0 c143 0 153 1 153 19
0 27 -18 31 -146 31 l-114 0 0 125 c0 118 -1 125 -20 125 -11 0 -20 -1 -20 -2z"/>
<path d="M3282 780 l-3 -150 25 0 26 0 0 117 0 118 118 -118 c64 -64 125 -117
135 -117 15 0 17 14 17 150 l0 150 -25 0 -25 0 0 -107 0 -108 -108 108 c-80
79 -114 107 -133 107 l-25 0 -2 -150z"/>
<path d="M4510 779 c0 -148 0 -150 22 -147 19 3 21 10 22 58 l1 54 108 2 c98
2 111 5 133 25 34 32 34 100 -1 134 -23 24 -29 25 -155 25 l-130 0 0 -151z
m256 86 c18 -25 18 -31 -6 -55 -17 -17 -33 -20 -116 -20 l-96 0 6 31 c3 17 6
40 6 51 0 19 5 20 96 16 80 -3 99 -7 110 -23z"/>
<path d="M4900 780 l0 -150 155 0 c145 0 155 1 155 19 0 27 -18 31 -146 31
l-114 0 0 125 0 125 -25 0 -25 0 0 -150z"/>
<path d="M5394 918 c-35 -56 -144 -265 -144 -275 0 -7 10 -13 23 -13 17 0 28
11 45 46 l23 46 87 -6 c48 -3 88 -9 89 -13 12 -34 46 -73 64 -73 30 0 24 17
-61 170 -60 110 -75 130 -95 130 -13 0 -27 -5 -31 -12z"/>
<path d="M6120 780 l0 -150 145 0 145 0 0 26 0 25 -107 -2 c-60 -1 -114 -1
-120 0 -8 1 -13 16 -13 41 l0 40 85 0 c84 0 85 0 85 25 0 25 -1 25 -86 25
l-85 0 3 38 3 37 118 0 c115 -1 117 0 117 22 0 23 -1 23 -145 23 l-145 0 0
-150z"/>
</g>
</svg>
